<svg xmlns="http://www.w3.org/2000/svg" width="15" height="15" viewBox="0 0 15 15" fill="none">
    <g clip-path="url(#clip0_448_389)">
    <path d="M13.2871 0.565821C12.9223 0.201045 12.4374 0 11.9217 0C11.406 0 10.921 0.20072 10.5559 0.565496L8.6882 2.43323L8.4466 2.19195C8.01532 1.76035 7.26191 1.75946 6.82822 2.19195C6.3832 2.63818 6.3832 3.36355 6.8285 3.80945L7.07544 4.05639L2.96832 8.16379V8.16351L2.43471 10.1541L2.26708 10.7793L1.22705 11.8197C1.12207 11.9246 1.12175 12.0952 1.22705 12.2006L1.84624 12.8195C1.89905 12.8723 1.96792 12.8988 2.03712 12.8988C2.10632 12.8988 2.17491 12.8726 2.22772 12.8201L3.26808 11.7797L3.89265 11.6124L5.88388 11.0788L5.88328 11.0782L9.99007 6.97107L10.195 7.17597C10.4112 7.39163 10.6984 7.5103 11.0039 7.5103C11.3093 7.5103 11.5962 7.39159 11.8125 7.17565C12.0287 6.95943 12.1477 6.6722 12.1477 6.36673C12.1477 6.06104 12.0287 5.77376 11.8125 5.55782L11.4197 5.16502L13.2877 3.297C14.0396 2.54387 14.0396 1.31862 13.2871 0.565821ZM8.96647 7.15119L3.15451 9.77354L3.50319 8.47338L7.48291 4.49394L8.86688 5.84834L9.5684 6.54986L8.96647 7.15119ZM12.8654 2.87528L10.8399 4.899C10.8235 4.91153 10.8077 4.92373 10.7922 4.93775L10.5592 5.14803L11.3905 5.97959C11.494 6.08308 11.551 6.22059 11.551 6.36673C11.551 6.51288 11.494 6.65039 11.3905 6.75388C11.1841 6.96026 10.8229 6.9597 10.6162 6.75388L10.4116 6.54926L10.4239 6.53701L9.28359 5.42119L7.25063 3.38824C7.03738 3.17467 7.03738 2.8272 7.25035 2.61395C7.35385 2.51046 7.49164 2.45347 7.63778 2.45347C7.78425 2.45347 7.92171 2.51013 8.02492 2.61362L8.70556 3.29426L8.91584 3.05952C8.92925 3.04463 8.9415 3.0288 8.95371 3.01089L10.9774 0.986891C11.2301 0.735446 11.5653 0.596451 11.9217 0.596451C12.2781 0.596451 12.6134 0.735121 12.8654 0.987494C13.3853 1.50774 13.3853 2.3548 12.8654 2.87528ZM2.3805 14.4959L2.38319 14.5013H2.38022C2.37605 14.7775 2.15175 15 1.87525 15C1.59786 15 1.37384 14.7776 1.37027 14.5013H1.36669L1.36966 14.4959C1.36966 14.4959 1.36939 14.4953 1.36939 14.4947C1.36939 14.3164 1.7473 13.5651 1.87525 13.5674C2.0032 13.5698 2.38078 14.3167 2.38078 14.4947C2.38083 14.4953 2.3805 14.4959 2.3805 14.4959Z" fill="#01093F"/>
    </g>
    <defs>
    <clipPath id="clip0_448_389">
    <rect width="15" height="15" fill="white"/>
    </clipPath>
    </defs>
</svg>